<?xml version="1.0" standalone="no"?>
<!DOCTYPE svg PUBLIC "-//W3C//DTD SVG 20010904//EN"
 "http://www.w3.org/TR/2001/REC-SVG-20010904/DTD/svg10.dtd">
<svg version="1.0" xmlns="http://www.w3.org/2000/svg"
 width="880.000000pt" height="702.000000pt" viewBox="0 0 880.000000 702.000000"
 preserveAspectRatio="xMidYMid meet">

<g transform="translate(0.000000,702.000000) scale(0.100000,-0.100000)"
fill="#000000" stroke="none">
<path d="M2550 6576 c-187 -34 -392 -102 -572 -192 -168 -83 -318 -191 -318
-228 0 -22 55 -63 149 -111 129 -64 192 -118 378 -317 94 -101 231 -248 306
-328 75 -80 137 -150 137 -157 0 -6 -13 -19 -29 -30 -16 -10 -76 -59 -133
-110 -338 -299 -527 -660 -625 -1188 -15 -86 -18 -152 -18 -475 1 -400 6 -466
60 -729 104 -510 366 -1044 744 -1521 101 -128 356 -381 463 -461 291 -216
581 -319 898 -319 210 0 311 24 526 123 l120 56 65 -23 c163 -60 397 -91 628
-83 197 6 295 29 458 107 253 121 504 348 692 629 95 141 133 221 259 536 373
935 397 1029 397 1525 -1 224 -5 325 -18 420 -75 537 -238 926 -534 1280 -410
490 -820 715 -1384 762 -108 9 -171 9 -254 0 -60 -6 -112 -9 -115 -6 -2 3 29
38 71 77 42 40 126 120 187 178 62 58 112 111 112 117 0 13 -326 262 -342 262
-6 0 -40 -21 -76 -47 -159 -114 -349 -346 -456 -560 -14 -29 -35 -57 -45 -63
-11 -5 -49 -10 -84 -10 l-64 0 -19 42 c-72 160 -202 335 -365 493 -178 172
-335 266 -554 330 -84 25 -105 27 -330 31 -171 2 -262 -1 -315 -10z m2950
-1111 c142 -19 215 -47 255 -99 27 -35 33 -84 13 -104 -16 -16 -43 -15 -81 4
-61 31 -377 216 -377 221 0 3 15 3 33 0 17 -4 88 -13 157 -22z m454 -247 c19
-26 20 -81 5 -146 -12 -49 -20 -58 -106 -118 l-52 -36 -35 29 c-40 32 -44 53
-22 126 18 62 50 104 104 138 55 35 86 37 106 7z m-264 -406 c0 -66 -86 -144
-288 -260 -194 -111 -236 -126 -366 -126 -94 -1 -110 1 -120 17 -14 23 -6 30
214 160 248 148 318 181 455 217 97 26 105 25 105 -8z m-2746 -493 c127 -67
235 -125 240 -130 6 -5 -16 -61 -53 -138 -196 -412 -342 -903 -389 -1311 l-8
-65 -32 85 c-122 315 -170 589 -159 915 9 248 44 457 114 670 30 94 31 95 46
95 6 0 115 -55 241 -121z m-134 -1728 c0 -5 -8 -19 -18 -32 -24 -28 -52 -20
-52 16 0 22 4 25 35 25 19 0 35 -4 35 -9z m57 -133 c16 -13 26 -63 18 -88 -8
-25 -49 -43 -77 -34 -11 3 -26 20 -33 37 -29 69 35 129 92 85z m64 -218 c10
-6 19 -20 19 -30 0 -16 -7 -20 -35 -20 -32 0 -35 2 -35 30 0 32 16 38 51 20z"/>
</g>
</svg>
